PathFileType        4      (X/Y/Z)      C:\Users\pc\Desktop\IMUTRC\Sujet_07\Sujet_07_velo_60.trc         
DataRate	CameraRate	NumFrames	NumMarkers	Units	OrigDataRate	OrigDataStartFrame	OrigNumFrames
60.0	60.0	4	64	mm	60.0	117	935
Frame#	Time	pHipOrigin			pRightASI			pLeftASI			pRightCSI			pLeftCSI			pRightIschialTub			pLeftIschialTub			pSacrum			pL5SpinalProcess			pL3SpinalProcess			pT12SpinalProcess			pIJ			pT4SpinalProcess			pT8SpinalProcess			pPX			pC7SpinalProcess			pTopOfHead			pRightAuricularis			pLeftAuricularis			pBackOfHead			pRightAcromion			pLeftAcromion			pRightArmLatEpicondyle			pRightArmMedEpicondyle			pLeftArmLatEpicondyle			pLeftArmMedEpicondyle			pRightUlnarStyloid			pRightRadialStyloid			pRightOlecranon			pLeftUlnarStyloid			pLeftRadialStyloid			pLeftOlecranon			pRightTopOfHand			pRightPinky			pRightBallHand			pLeftTopOfHand			pLeftPinky			pLeftBallHand			pRightGreaterTrochanter			pRightKneeLatEpicondyle			pRightKneeMedEpicondyle			pRightPatella			pLeftGreaterTrochanter			pLeftKneeLatEpicondyle			pLeftKneeMedEpicondyle			pLeftPatella			pRightTibialTub			pRightLatMalleolus			pRightMedMalleolus			pLeftTibialTub			pLeftLatMalleolus			pLeftMedMalleolus			pRightHeelFoot			pRightFirstMetatarsal			pRightFifthMetatarsal			pRightPivotFoot			pRightHeelCenter			pRightToe			pLeftHeelFoot			pLeftFirstMetatarsal			pLeftFifthMetatarsal			pLeftPivotFoot			pLeftHeelCenter			pLeftToe			
		X1	Y1	Z1	X2	Y2	Z2	X3	Y3	Z3	X4	Y4	Z4	X5	Y5	Z5	X6	Y6	Z6	X7	Y7	Z7	X8	Y8	Z8	X9	Y9	Z9	X10	Y10	Z10	X11	Y11	Z11	X12	Y12	Z12	X13	Y13	Z13	X14	Y14	Z14	X15	Y15	Z15	X16	Y16	Z16	X17	Y17	Z17	X18	Y18	Z18	X19	Y19	Z19	X20	Y20	Z20	X21	Y21	Z21	X22	Y22	Z22	X23	Y23	Z23	X24	Y24	Z24	X25	Y25	Z25	X26	Y26	Z26	X27	Y27	Z27	X28	Y28	Z28	X29	Y29	Z29	X30	Y30	Z30	X31	Y31	Z31	X32	Y32	Z32	X33	Y33	Z33	X34	Y34	Z34	X35	Y35	Z35	X36	Y36	Z36	X37	Y37	Z37	X38	Y38	Z38	X39	Y39	Z39	X40	Y40	Z40	X41	Y41	Z41	X42	Y42	Z42	X43	Y43	Z43	X44	Y44	Z44	X45	Y45	Z45	X46	Y46	Z46	X47	Y47	Z47	X48	Y48	Z48	X49	Y49	Z49	X50	Y50	Z50	X51	Y51	Z51	X52	Y52	Z52	X53	Y53	Z53	X54	Y54	Z54	X55	Y55	Z55	X56	Y56	Z56	X57	Y57	Z57	X58	Y58	Z58	X59	Y59	Z59	X60	Y60	Z60	X61	Y61	Z61	X62	Y62	Z62	X63	Y63	Z63	X64	Y64	Z64	
117	1.933	0.0	1249.97763	7.653905517926474E-14	119.30240219016478	1328.54214	124.69943794161817	80.67394714133428	1319.70549	-156.810615295917	95.50171785824648	1409.55715	99.98271245940921	63.72475346153166	1402.27991	-131.6121706951735	-66.40377779833713	1215.52212	69.27205696123421	-82.27369249669455	1211.8835	-46.55754446942667	-58.14813979238872	1294.60643	6.55693248603495	15.250836012782216	1381.48779	-5.771622832039878	99.11122547113008	1470.22558	-23.893118116411888	178.90220652827477	1548.19603	-42.391951293152395	442.31835225584655	1524.95341	-96.61163922727427	350.2164820220288	1652.23088	-83.07688051018623	267.3253336248274	1613.24565	-63.36683998850188	331.3588134003647	1466.88399	-69.86994034516665	404.40802264044163	1676.14181	-94.66200220170983	678.273639579518	1667.75071	-125.09942518638589	583.0707771467345	1648.07245	-46.04499042681461	571.3511443426248	1659.21109	-190.00373096404573	569.7926846944025	1709.85475	-113.04681967177864	436.96903133667655	1609.90406	91.16885639071941	360.98374582649024	1590.37432	-271.3306284780108	467.4710886430304	1322.67579	62.991263400736976	431.11473469351716	1322.15599	9.674955619251246	392.01017018014704	1304.25992	-268.3371918357369	362.09022543212086	1297.57673	-211.61332737250186	548.3850200271388	1078.73968	21.903803203319153	596.850219579518	1102.13082	15.930075179633956	424.79108123198546	1314.73023	41.865504704082916	457.83735147949125	1051.04161	-259.8282143652489	505.7836402954978	1070.86838	-275.4477626289436	352.8599649885018	1295.34901	-234.09146731706042	741.1663772518917	1050.59607	116.31435773796154	662.5145889655731	1025.05146	69.27557115601613	607.1508334678173	1061.7347	25.564188575950006	591.5907407896709	987.99694	-416.34722033502027	538.1620834664657	978.86326	-338.2120512710417	508.5146521462683	1027.50196	-282.702773910551	55.75207942064331	1239.28454	167.49448581583067	447.2178165837631	1050.15052	77.27883962690301	435.3556107568536	1050.59607	-7.7694771910501785	458.2244990303226	1095.22486	29.699786406685387	-19.247104555961812	1222.87362	-176.51491701048369	133.3338910247464	808.29362	-221.58461362571276	155.11708999380824	800.19955	-138.8684609915098	187.56746101366753	824.259	-186.75729232236682	476.3717123663101	1003.14548	33.31747089296355	259.2387639823776	668.09534	143.4121694911653	249.0892428431658	660.00126	79.15981577677447	193.30181416289693	760.91729	-194.16472332537472	41.0863455851292	376.41161	-216.70847805077705	58.563906419115796	371.3621	-153.71298140761775	192.78858374636988	597.1051	125.88323783203995	349.6967495573133	545.86738	87.42760252504397	353.6867967576716	559.308	165.61579804942548	373.3002230680946	546.23867	125.40672716926456	233.0339396602336	590.57043	124.9387366205354	461.7215493168846	519.43168	125.52411763373671	-17.143049320839452	313.961	-165.01070757964695	139.5124430117209	249.50543	-171.54349958435822	116.63118324814782	249.35691000000003	-247.60527513266825	148.27879569070558	240.59452	-214.49958782142724	20.357112404386946	302.45107	-176.20041297978887	229.04383045427863	202.64890000000003	-238.69545150700247	
118	1.95	0.0	1249.97763	7.653905517926474E-14	120.05954980882095	1327.94808	124.27911979727591	79.85516661076105	1320.22529	-157.0261058167159	96.16470390961865	1409.1116	100.02250693372311	63.0789958428755	1402.72545	-131.38478569028632	-66.082231226166	1215.29935	69.45770196123422	-82.56077854317958	1212.10627	-46.20881685077051	-58.07654926670262	1294.68069	7.026994058206072	15.332370491983276	1381.48779	-5.467304692584779	99.13840651761512	1470.22558	-23.79167706992686	178.90220652827477	1548.19603	-42.391951293152395	442.13804120447435	1524.87915	-97.48745132513152	350.1177054498577	1652.23088	-83.64837446858833	267.2437991456264	1613.24565	-63.67115812795696	331.26005048844763	1466.80973	-70.44143796382282	404.25488397530046	1676.06756	-95.43637825308197	678.0489103886907	1667.82497	-126.34386280992915	582.9375487091314	1648.07245	-47.150852003872885	571.1164798585366	1659.28535	-191.08242015487298	569.5580065500602	1709.85475	-114.1255052023519	437.28596290396047	1609.75555	90.3228948136611	360.350610295917	1590.22581	-271.8676655709809	467.85960207574635	1322.60154	62.615358395849846	431.5304341727183	1322.00747	9.400483000595099	392.04996465446095	1304.25992	-269.00017788710915	362.2586419994048	1297.50248	-212.20205342387402	549.142167645795	1078.73968	21.483485058976935	597.5430511516892	1102.13082	15.472635695545772	425.21673332495556	1314.58172	41.42529365271076	458.4758209586923	1051.26438	-260.48853594230724	506.35780738846785	1071.16541	-276.1452092060019	352.92694050930083	1295.27475	-234.65301232194764	741.8963388240629	1050.67032	115.79260720738829	663.3088665842293	1025.12572	68.79094196518889	607.8807950399885	1061.7347	25.04243804537669	592.256391315357	988.21971	-416.9061008655935	538.8277339921517	979.08603	-338.77093180161495	509.11600028572343	1027.72473	-283.2987794411243	56.09351889984439	1238.09642	167.34863529014459	445.8872208158775	1045.91784	76.16763910121689	434.12645603545303	1046.95744	-8.907858763221292	457.30694192757824	1091.1407	28.91280192748435	-18.841354030275724	1223.76471	-176.62363753616978	139.34855838435172	811.4867	-223.68548308317526	160.66170444149643	803.09559	-140.89773492328618	193.1465323267878	827.89762	-188.25220729574113	476.6840202684529	1000.17518	31.439897738846984	270.67137422727427	657.92205	140.8380476838718	260.0889251761454	650.05075	76.5929871089361	197.13921389407176	762.40245	-195.46475462872073	29.559573772948553	384.06014	-213.67424362482743	46.69568646748007	379.08488	-150.532901455982	207.4300818570093	583.813	122.50365920548872	366.7455697755843	541.26341	83.29425969789115	370.08986301754044	553.81294	161.70985388741386	390.3490432863656	542.30302	121.27338434211174	247.97975091032814	579.4318	121.47763217503713	480.0890571586989	520.02575	121.03744084329466	-29.901640328734523	322.72339	-162.51617972098128	125.62080438028254	255.59455	-169.01717567432038	102.97954304942547	256.41138	-245.19762070183143	134.35997101278215	246.83215	-212.0746962976204	7.3684669172908315	310.6194	-173.75295907463814	214.48920577146805	207.62416000000002	-236.2089220712785	
119	1.967	0.0	1249.97763	7.653905517926474E-14	120.81668376722305	1327.50253	123.8588053131877	78.87063398721773	1320.81935	-157.2515452910298	96.76338757475986	1408.74031	100.02517640803703	62.304624791503315	1403.24525	-131.23165568539918	-65.63207122127885	1215.07658	69.71760196123422	-82.8478595896646	1212.32905	-45.86009789236839	-57.97777269453151	1294.60643	7.598488016608187	15.248166538468308	1381.48779	-5.172939166898689	99.06415151761512	1470.22558	-23.66306363721083	178.78353704907371	1548.19603	-42.63194972586842	441.7747546274161	1524.80489	-98.64040051595877	349.83595335200044	1652.15662	-84.4970055199605	267.1078925734552	1613.24565	-64.17834103987406	330.96834943707546	1466.80973	-71.12431692222495	403.98308949121224	1675.9933	-96.45075639742423	677.7327064254014	1667.82497	-127.72686147995758	582.6856384718191	1647.9982	-48.49673067390121	570.6988211885083	1659.13683	-192.43823411816226	569.204663926517	1709.78049	-115.44419782589524	437.5114023782744	1609.82981	89.3383621901178	359.4973642396576	1589.85452	-272.61752005018195	468.2680220757464	1322.67579	61.90795420502254	431.80029178648726	1321.93322	8.784575902737853	391.9783741287749	1304.1114	-269.4702394592802	362.2513575202038	1297.35396	-212.63497633579115	549.679196078511	1078.8882	20.850344528403678	598.1172095844051	1102.35359	14.77518411848747	425.55089332495555	1314.58172	40.84651155485354	459.04998805166235	1051.26438	-261.18598251936544	506.8305384349528	1071.31393	-276.81548339682917	352.9567910300997	1295.12624	-235.1502549406038	742.497683303264	1050.8931	115.196588016561	663.8730760634303	1025.34849	68.25924248110067	608.3806984727046	1061.95747	24.47359990103451	592.766238701588	988.36822	-417.64068244265167	539.3375950386369	979.23454	-339.5055170389273	509.6258526719544	1027.87325	-284.0333696784366	56.2963873325604	1236.61127	167.29427685742857	443.59661765687395	1039.60595	75.5311201525891	432.0015913091654	1041.38813	-9.5344250980801	455.7608642991478	1084.97732	28.620386932371485	-18.499914551074667	1224.80432	-176.76948806185584	147.49341941887246	815.86789	-226.35713621555325	168.3736339038461	807.1055	-143.56210857646315	200.7371364958765	832.94713	-190.55789937674692	476.16493921219353	995.19992	30.111252501534697	281.1493110296806	645.96658	137.54124878360824	270.4011098855816	638.39231	73.28623925515755	202.95100782096102	764.9272	-197.51125699321312	19.158566444856135	394.01065	-211.10475048267512	36.12893570667164	389.10965	-147.97335226734467	221.22827786490436	569.18426	118.20848266702039	382.50554289111085	534.72874	79.01702553587954	385.1125900816948	546.46144	157.5214473440584	405.9061429691762	536.43667	117.0505172730702	261.9065653509392	566.73376	117.25670197631479	496.6134573720827	518.46634	116.77282010911188	-41.77447528525741	334.38183	-160.36770634640382	112.10773888829925	263.61436	-166.70099967619961	89.73366203664327	265.24803	-242.89868179668076	120.74546947431385	254.77771	-209.73134791326862	-4.744375132202123	321.46101	-171.4858212208596	200.00884474891154	213.86179000000004	-233.8510010682706	
120	1.983	0.0	1249.97763	7.653905517926474E-14	121.61096138587921	1327.13125	123.37417612236042	77.7846603171894	1321.48767	-157.4498037188587	97.362062579647	1408.44328	100.02784088235093	61.32738030741511	1403.76506	-131.02415858754196	-65.11760016990667	1214.77955	70.01463196123422	-83.17207563614964	1212.4033	-45.4470592272272	-57.94331216884541	1294.53217	8.132860635264345	15.126837584953341	1381.56204	-4.814271254981603	98.86126942464506	1470.37409	-23.608701544240756	178.4619904769026	1548.34454	-42.81759472586841	441.2728920038728	1524.73063	-99.70184895356194	349.52702020765815	1652.15662	-85.44707761781773	266.77906652208304	1613.31991	-64.79691761204516	330.57521233921824	1466.80973	-71.78002349439606	403.5554868676689	1675.91904	-97.64082692799748	677.2606856624029	1667.60219	-129.28555753621686	582.2408124155597	1647.92394	-49.953989343929564	570.2168651322489	1658.98832	-193.83118174170554	568.7598378702576	1709.63198	-116.90145649592357	437.60821975961824	1610.05258	88.2795695665745	358.47836609042827	1589.33472	-273.37732348289796	468.5106936430304	1322.89857	61.19061472093434	431.9043886470322	1322.08173	8.158714851365684	391.8325236030888	1303.96289	-269.8116789384813	362.2341254272337	1297.13119	-212.9021694752462	550.1791031714811	1079.11097	20.28152004431548	598.5528106308902	1102.65062	14.169220974145258	425.75643123198546	1314.73023	40.19346945699632	459.48558043789336	1051.26438	-261.7919506637077	507.2389534349528	1071.46244	-277.5228789274025	352.8381215508987	1294.8292	-235.39025337331984	742.896149349749	1051.26438	114.65494457895782	664.3086771099154	1025.64552	67.6532793367584	608.9177355656745	1062.2545	23.84046437046127	593.147481315357	988.51674	-418.44951401970997	539.7831400386368	979.3088	-340.2772236159855	510.0985787184395	1027.94751	-284.7036352090098	56.39782837904544	1234.82909	167.26709581094354	440.244557400013	1031.36336	75.39645882750457	429.0181565779906	1034.03663	-9.713504562619725	453.42051771231525	1076.80899	28.81260612808593	-18.121345071873606	1225.91818	-176.979649634027	157.43698360262266	821.43721	-229.61947459013072	178.11432465488025	812.30353	-146.77007985807055	210.05217515394062	839.33329	-193.32565960698216	474.74019053727807	988.44248	29.460169594504723	290.8827086412596	632.30319	133.90034959008378	280.1345124971607	625.02595	69.64533140137904	210.43288280410962	768.64008	-200.22270459990506	9.873373307590995	406.33741	-208.834224210842	26.84373890915245	401.36215	-145.70283965576562	234.21763729574116	553.21888	113.53207217503713	397.0038549503781	526.33764	74.69733242524009	398.7079176568739	537.32776	153.28062923830615	420.16444793547333	528.71388	112.84948864163181	274.98740821449206	552.55056	112.71885753081654	511.48766943623707	514.75346	112.84164909144252	-52.642871050953005	348.56502	-158.32529268345257	99.23048340120312	273.63914	-164.446478910504	77.12358602874819	275.94112	-240.66138946370117	107.7667729407327	264.65397	-207.44964610108798	-15.981391423583815	334.67886	-169.39899807870734	185.92428163827213	221.58458	-231.43606215823274	
